<svg aria-hidden="true" style="position: absolute; width: 0; height: 0; overflow: hidden;" version="1.1" xmlns="http://www.w3.org/2000/svg" xmlns:xlink="http://www.w3.org/1999/xlink">
<defs>
<symbol id="cursor-pointer" viewBox="0 0 29 32">
<path d="M18.8 13.104l1.008 0.208 6.672 3.328c1.12 0.368 1.856 1.472 1.76 2.656v0.416l-1.44 9.792c-0.096 0.688-0.4 1.328-0.96 1.776-0.496 0.48-1.152 0.72-1.84 0.72h-11.008c-0.784 0-1.504-0.288-2.032-0.848l-9.584-9.552 1.44-1.6c0.384-0.4 0.992-0.624 1.568-0.592h0.464l6.352 1.392v-16.8c0-0.849 0.337-1.663 0.937-2.263s1.414-0.937 2.263-0.937c0.849 0 1.663 0.337 2.263 0.937s0.937 1.414 0.937 2.263v9.104h1.2z"></path>
</symbol>
<symbol id="ellipse" viewBox="0 0 32 32">
<path fill="#407bff" style="fill: var(--color1, #407bff)" d="M32 16c0 8.837-7.163 16-16 16s-16-7.163-16-16c0-8.837 7.163-16 16-16s16 7.163 16 16z"></path>
</symbol>
<symbol id="icon-pencil" viewBox="0 0 32 32">
<path stroke-linejoin="round" stroke-linecap="round" stroke-miterlimit="4" stroke-width="1.3333" d="M22.483 5.983l2.249-2.251c0.469-0.469 1.105-0.732 1.768-0.732s1.299 0.263 1.768 0.732c0.469 0.469 0.732 1.105 0.732 1.768s-0.263 1.299-0.732 1.768l-14.159 14.159c-0.705 0.705-1.574 1.222-2.529 1.507l-3.58 1.067 1.067-3.58c0.284-0.955 0.802-1.824 1.507-2.529l11.909-11.908zM22.483 5.983l3.517 3.517M24 18.667v6.333c0 0.796-0.316 1.559-0.879 2.121s-1.326 0.879-2.121 0.879h-14c-0.796 0-1.559-0.316-2.121-0.879s-0.879-1.326-0.879-2.121v-14c0-0.796 0.316-1.559 0.879-2.121s1.326-0.879 2.121-0.879h6.333"></path>
</symbol>
<symbol id="icon-arrow-up" viewBox="0 0 32 32">
<path stroke-linejoin="round" stroke-linecap="round" stroke-miterlimit="4" stroke-width="1.3333" d="M4 22v3c0 0.796 0.316 1.559 0.879 2.121s1.326 0.879 2.121 0.879h18c0.796 0 1.559-0.316 2.121-0.879s0.879-1.326 0.879-2.121v-3M10 10l6-6M16 4l6 6M16 4v18"></path>
</symbol>
<symbol id="icon-bar" viewBox="0 0 32 32">
<path fill="none" stroke="#407bff" style="stroke: var(--color1, #407bff)" stroke-linejoin="round" stroke-linecap="round" stroke-miterlimit="4" stroke-width="1.6" d="M5 4v15c0 0.796 0.316 1.559 0.879 2.121s1.326 0.879 2.121 0.879h3M5 4h-2M5 4h22M11 22h10M11 22l-1.333 4M27 4h2M27 4v15c0 0.796-0.316 1.559-0.879 2.121s-1.326 0.879-2.121 0.879h-3M21 22l1.333 4M9.667 26h12.667M9.667 26l-0.667 2M22.333 26l0.667 2M12 15v2M16 12v5M20 9v8"></path>
</symbol>
<symbol id="icon-calendar" viewBox="0 0 32 32">
<path fill="none" stroke="#407bff" style="stroke: var(--color1, #407bff)" stroke-linejoin="round" stroke-linecap="round" stroke-miterlimit="4" stroke-width="1.6" d="M9 4v3M23 4v3M4 25v-15c0-0.796 0.316-1.559 0.879-2.121s1.326-0.879 2.121-0.879h18c0.796 0 1.559 0.316 2.121 0.879s0.879 1.326 0.879 2.121v15M4 25c0 0.796 0.316 1.559 0.879 2.121s1.326 0.879 2.121 0.879h18c0.796 0 1.559-0.316 2.121-0.879s0.879-1.326 0.879-2.121M4 25v-10c0-0.796 0.316-1.559 0.879-2.121s1.326-0.879 2.121-0.879h18c0.796 0 1.559 0.316 2.121 0.879s0.879 1.326 0.879 2.121v10M16 17h0.011v0.011h-0.011v-0.011zM16 20h0.011v0.011h-0.011v-0.011zM16 23h0.011v0.011h-0.011v-0.011zM13 20h0.011v0.011h-0.011v-0.011zM13 23h0.011v0.011h-0.011v-0.011zM10 20h0.011v0.011h-0.011v-0.011zM10 23h0.011v0.011h-0.011v-0.011zM19 17h0.011v0.011h-0.011v-0.011zM19 20h0.011v0.011h-0.011v-0.011zM19 23h0.011v0.011h-0.011v-0.011zM22 17h0.011v0.011h-0.011v-0.011zM22 20h0.011v0.011h-0.011v-0.011z"></path>
</symbol>
<symbol id="icon-screwdriver" viewBox="0 0 32 32">
<path fill="none" stroke="#407bff" style="stroke: var(--color1, #407bff)" stroke-linejoin="round" stroke-linecap="round" stroke-miterlimit="4" stroke-width="1.6" d="M15.227 20.227l7.773 7.773c0.667 0.645 1.56 1.003 2.488 0.995s1.816-0.379 2.472-1.036c0.656-0.656 1.028-1.544 1.036-2.472s-0.35-1.821-0.995-2.488l-7.836-7.836M15.227 20.227l3.328-4.040c0.423-0.512 0.987-0.835 1.611-1.021 0.733-0.219 1.551-0.251 2.324-0.187 1.042 0.090 2.090-0.095 3.039-0.536s1.766-1.121 2.371-1.975 0.975-1.851 1.076-2.893c0.1-1.041-0.074-2.091-0.504-3.045l-4.368 4.369c-0.731-0.169-1.399-0.54-1.93-1.070s-0.901-1.199-1.070-1.93l4.368-4.368c-0.954-0.431-2.003-0.605-3.044-0.504s-2.039 0.471-2.893 1.076-1.535 1.422-1.975 2.371c-0.44 0.949-0.625 1.997-0.536 3.039 0.121 1.435-0.095 3.019-1.205 3.933l-0.136 0.113M15.227 20.227l-6.207 7.537c-0.301 0.367-0.675 0.666-1.099 0.88s-0.887 0.336-1.361 0.359c-0.474 0.023-0.947-0.053-1.39-0.224s-0.844-0.432-1.18-0.767-0.597-0.737-0.767-1.18c-0.171-0.442-0.247-0.916-0.223-1.39s0.146-0.937 0.359-1.361c0.213-0.424 0.513-0.798 0.88-1.099l9.116-7.507-5.476-5.476h-1.879l-3-5 2-2 5 3v1.879l5.68 5.68-2.327 1.916M24.5 24.5l-3.5-3.5M6.489 25.5h0.011v0.011h-0.011v-0.011z"></path>
</symbol>
<symbol id="icon-user" viewBox="0 0 32 32">
<path stroke-linejoin="miter" stroke-linecap="butt" stroke-miterlimit="4" stroke-width="1.3333" d="M31.333 16c0 8.468-6.865 15.333-15.333 15.333s-15.333-6.865-15.333-15.333c0-8.468 6.865-15.333 15.333-15.333s15.333 6.865 15.333 15.333z"></path>
<path stroke-linejoin="round" stroke-linecap="round" stroke-miterlimit="4" stroke-width="1.3333" d="M20.001 9.436c0 1.088-0.421 2.132-1.172 2.901s-1.768 1.202-2.829 1.202c-1.061 0-2.079-0.432-2.829-1.202s-1.172-1.813-1.172-2.901c0-1.088 0.421-2.132 1.172-2.901s1.768-1.202 2.829-1.202c1.061 0 2.079 0.432 2.829 1.202s1.172 1.813 1.172 2.901zM8 24.881c0.034-2.153 0.892-4.205 2.389-5.715s3.512-2.356 5.611-2.356c2.099 0 4.115 0.846 5.611 2.356s2.355 3.562 2.389 5.715c-2.51 1.18-5.239 1.789-8 1.785-2.855 0-5.564-0.639-8-1.785z"></path>
</symbol>
<symbol id="icon-trash" viewBox="0 0 32 32">
<path stroke-linejoin="round" stroke-linecap="round" stroke-miterlimit="4" stroke-width="1.3333" d="M19.653 12l-0.461 12M12.808 24l-0.461-12M25.637 7.72c0.456 0.069 0.909 0.143 1.363 0.221M25.637 7.72l-1.424 18.511c-0.058 0.754-0.399 1.458-0.953 1.971s-1.283 0.799-2.039 0.798h-10.443c-0.756 0-1.484-0.285-2.039-0.798s-0.895-1.217-0.953-1.971l-1.424-18.511M25.637 7.72c-1.539-0.233-3.086-0.409-4.637-0.529M6.363 7.72c-0.456 0.068-0.909 0.141-1.363 0.22M6.363 7.72c1.539-0.233 3.086-0.409 4.637-0.529M21 7.191v-1.221c0-1.573-1.213-2.885-2.787-2.935-1.475-0.047-2.951-0.047-4.427 0-1.573 0.049-2.787 1.363-2.787 2.935v1.221M21 7.191c-3.328-0.257-6.672-0.257-10 0"></path>
</symbol>


<symbol id="icon-plus-circle" width="20" height="20" viewBox="0 0 20 20" fill="none" xmlns="http://www.w3.org/2000/svg">
  <path d="M10 7V13M13 10H7M19 10C19 11.1819 18.7672 12.3522 18.3149 13.4442C17.8626 14.5361 17.1997 15.5282 16.364 16.364C15.5282 17.1997 14.5361 17.8626 13.4442 18.3149C12.3522 18.7672 11.1819 19 10 19C8.8181 19 7.64778 18.7672 6.55585 18.3149C5.46392 17.8626 4.47177 17.1997 3.63604 16.364C2.80031 15.5282 2.13738 14.5361 1.68508 13.4442C1.23279 12.3522 1 11.1819 1 10C1 7.61305 1.94821 5.32387 3.63604 3.63604C5.32387 1.94821 7.61305 1 10 1C12.3869 1 14.6761 1.94821 16.364 3.63604C18.0518 5.32387 19 7.61305 19 10Z" stroke="white" stroke-width="2" stroke-linecap="round" stroke-linejoin="round" />
</symbol>
<symbol id="icon-minus-small" viewBox="0 0 32 32">
<path d="M7 16c0-0.265 0.105-0.52 0.293-0.707s0.442-0.293 0.707-0.293h16c0.265 0 0.52 0.105 0.707 0.293s0.293 0.442 0.293 0.707-0.105 0.52-0.293 0.707c-0.187 0.188-0.442 0.293-0.707 0.293h-16c-0.265 0-0.52-0.105-0.707-0.293s-0.293-0.442-0.293-0.707z"></path>
</symbol>
<symbol id="icon-logo" viewBox="0 0 27 32">
<path fill="#9ebbff" style="fill: var(--color1, #9ebbff)" d="M10.546 4.879c0.449-0.353 1.016 0.412 1.076 1.118s-0.568 2.295-2.331 2.707c-1.763 0.412-1.972 1.501-1.913 2.148s-0.239 1.354-0.867 1.207-0.687-1.118-0.12-2.031c0.568-0.913 2.002-1.736 2.241-2.237s0.060-1.089 0.538-1.295c0.478-0.206 1.106 0.324 1.046 0.824 0 0 0.478-0.471 0.418-1.177-0.039-0.464-0.315-1.088-0.090-1.265z"></path>
<path fill="#9ebbff" style="fill: var(--color1, #9ebbff)" d="M22.141 9.176c0.166-0.472 1.345-0.206 1.614 0.441s0.179 1.148 0.448 1.589-0.478 1.177-1.031 1.089c-0.553-0.088-0.344-1.089-0.344-1.53s-0.956-0.824-0.687-1.589z"></path>
<path fill="#9ebbff" style="fill: var(--color1, #9ebbff)" d="M18.406 3.618c0.409-0.36 1.285 0.26 1.524 0.76s0.030 1.824-0.702 1.795c-0.732-0.029-0.441-1.065-0.702-1.28-0.463-0.382-0.448-0.986-0.119-1.275z"></path>
<path fill="#9ebbff" style="fill: var(--color1, #9ebbff)" d="M13.361 0.553c0.29 0.449 0.074 1.059-0.663 1.197s-0.877-0.471-1.275-0.334c-0.399 0.138-0.837 0.235-1.016-0.079s0.020-0.785 0.817-0.785 1.605-0.824 2.137 0z"></path>
<path fill="#9ebbff" style="fill: var(--color1, #9ebbff)" d="M8.724 4.843c0.347 0 0.627-0.298 0.627-0.666s-0.281-0.666-0.627-0.666c-0.347 0-0.628 0.298-0.628 0.666s0.281 0.666 0.628 0.666z"></path>
<path fill="#9ebbff" style="fill: var(--color1, #9ebbff)" d="M6.002 7.047c-0.223-0.111-0.954 1.039-0.456 1.177s0.812-1.001 0.456-1.177z"></path>
<path fill="#9ebbff" style="fill: var(--color1, #9ebbff)" d="M4.052 10.46c0 0 0.976 0.53 0.618 1.618s-1.135 0.952-1.375 0.618c-0.239-0.334-0.239-0.785 0.159-1.099s0.598-1.137 0.598-1.137z"></path>
<path fill="#9ebbff" style="fill: var(--color1, #9ebbff)" d="M24.771 16.326c0 0 0.299 0.442 0.15 1.236s-0.388 2.354 0.448 2.796c0.836 0.442 1.165-1.118 0.837-1.589s0.179-2.090-1.435-2.443z"></path>
<path fill="#9ebbff" style="fill: var(--color1, #9ebbff)" d="M25.832 23.418c0.355 0 0.643-0.343 0.643-0.765s-0.288-0.765-0.643-0.765-0.643 0.343-0.643 0.765c0 0.423 0.288 0.765 0.643 0.765z"></path>
<path fill="#9ebbff" style="fill: var(--color1, #9ebbff)" d="M0.625 23.712c0.554-0.283 1.016 0.177 1.076 1.030s0.867 1.589 0.448 2.030c-0.418 0.441-0.905-1.383-1.285-1.552-0.583-0.26-1.046-1.096-0.239-1.508z"></path>
<path fill="#9ebbff" style="fill: var(--color1, #9ebbff)" d="M24.157 24.565c-0.522 0.53 0.173 1.078-1.059 2.472-0.513 0.58 0.379 2.315-2.092 2.295 0 0-1.435 1.294-2.869 1.472s-2.032-0.059-3.407 0.706c-1.375 0.765-4.423-0.53-5.678-1.089s-1.733-0.618-2.808-0.618c-1.076 0-0.657-1.648-1.435-2.354s-1.674-1-1.734-1.647c-0.060-0.647-0.657-0.942-0.597-1.943s-0.956-1.295-1.076-2.531 0.537-1.471 0.298-2.177c-0.239-0.706-0.298-1.295 0.060-2.001 0.043-0.086 0.092-0.168 0.148-0.245 0.307-0.431 0.602-0.398 0.808-1.108 0.239-0.824-0.418-1.177 0.299-1.53s0.956 0.706 0.538 1.765c-0.419 1.060-0.957 2.060-0.239 2.236s0.538-2.001 1.495-3.002c0.956-1.001 0.538-1.235 1.793-2.236s1.375-0.588 1.793-1.648c0.418-1.060 1.599-2.177 2.803-2.707s1.741-0.765 1.561-1.648c-0.18-0.883 0.823-0.883 0.86-1.825s-0.801-1.589-1.518-1.354-1.435 0.235-1.195-0.529c0.239-0.765 1.744-0.706 2.456-0.354s1.31-0.529 2.266 0.354c0.956 0.883 2.211 1.177 2.032 3.238s-0.358 2.766 0.418 2.884c0.777 0.118 0.12-0.942 0.12-1.765s1.375-0.765 1.733-0.118c0.358 0.647-0.119 1.765 0.239 2.178s1.016 0.353 1.195 0.941c0.179 0.588-0.119 3.002 0.717 3.532s0.657-1.294 1.375-0.735c0.717 0.559 0.896 1.559 0.478 2.56-0.279 0.669-0.308 2.339-0.146 3.776 0.079 0.711 0.204 1.366 0.368 1.815 0.494 1.353 0.52 2.412-0.001 2.942z"></path>
<path fill="#c6d7ff" style="fill: var(--color2, #c6d7ff)" d="M14.249 9.565c1.569-0.488 2.887 2.212 2.34 3.372s-0.78 4.739 1.248 4.294c2.028-0.445 0.546-3.887 1.638-3.818s0.624 3.219 1.326 4.217c0.702 0.999 3.125 7.836-0.778 10.217s-9.425 2.305-11.54 0.538c-0.851-0.711-1.467-1.454-1.92-2.176-0.216-0.343-0.345-0.614-0.434-0.852-0.19-0.512-0.157-0.692-0.349-1.206-0.126-0.331-0.287-0.647-0.482-0.944-0.422-0.638-0.613-0.564-1.007-1.119-0.132-0.186-0.55-0.812-0.588-1.657-0.010-0.221-0.038-0.839 0.229-0.949 0.302-0.125 0.693 0.52 1.094 0.386 0.21-0.070 0.302-0.314 0.359-0.466 0.17-0.451 0-0.73-0.082-1.399-0.063-0.517-0.138-1.139 0.17-1.664 0.050-0.086 0.196-0.367 0.679-0.629 1.698-0.922 3.222-0.077 4.332-1.767s1.132-1.801 2.174-2.245c1.042-0.444 0.106-1.673 1.588-2.134z"></path>
<path fill="#407bff" style="fill: var(--color3, #407bff)" d="M13.626 32c-1.108 0-2.655-0.447-4.679-1.349-1.233-0.55-1.671-0.596-2.704-0.596-0.817 0-0.991-0.734-1.131-1.323-0.099-0.416-0.201-0.847-0.477-1.098-0.257-0.234-0.526-0.418-0.786-0.597-0.525-0.362-0.979-0.674-1.029-1.213-0.020-0.214-0.118-0.39-0.233-0.595-0.18-0.323-0.405-0.724-0.365-1.385 0.024-0.411-0.173-0.678-0.423-1.016-0.274-0.37-0.586-0.791-0.652-1.476-0.068-0.703 0.095-1.111 0.225-1.44 0.107-0.268 0.171-0.43 0.086-0.682-0.216-0.638-0.357-1.346 0.074-2.193 0.181-0.357 0.372-0.524 0.526-0.659 0.175-0.153 0.301-0.263 0.413-0.651 0.083-0.286 0.036-0.498-0.009-0.703-0.068-0.308-0.153-0.691 0.44-0.983 0.298-0.147 0.59-0.123 0.801 0.066 0.379 0.34 0.417 1.188 0.091 2.016-0.057 0.145-0.117 0.289-0.175 0.43-0.227 0.55-0.484 1.171-0.372 1.388 0.009 0.017 0.029 0.057 0.132 0.082 0.006 0.002 0.013 0.003 0.019 0.002 0.115-0.040 0.255-0.59 0.338-0.918 0.167-0.657 0.374-1.476 0.889-2.014 0.39-0.409 0.536-0.678 0.677-0.939 0.2-0.37 0.389-0.721 1.142-1.321 0.479-0.382 0.798-0.565 1.031-0.698 0.357-0.205 0.453-0.26 0.685-0.845 0.437-1.107 1.644-2.277 2.936-2.846l0.006-0.002c1.252-0.552 1.543-0.707 1.409-1.366-0.12-0.591 0.194-0.898 0.447-1.145 0.212-0.207 0.395-0.385 0.408-0.738 0.015-0.386-0.15-0.746-0.442-0.961-0.23-0.17-0.499-0.222-0.738-0.143-0.459 0.151-1.075 0.265-1.398-0.046-0.13-0.125-0.257-0.365-0.122-0.797 0.087-0.277 0.3-0.493 0.616-0.626 0.654-0.275 1.65-0.15 2.199 0.122 0.197 0.098 0.383 0.063 0.67-0.001 0.44-0.098 0.988-0.221 1.655 0.395 0.203 0.187 0.426 0.351 0.642 0.51 0.797 0.585 1.621 1.191 1.47 2.932-0.022 0.258-0.045 0.494-0.065 0.711-0.155 1.629-0.124 1.843 0.268 1.902 0.028 0.005 0.056 0.007 0.083 0.006 0.017-0.106-0.055-0.391-0.103-0.585-0.073-0.292-0.156-0.623-0.156-0.937 0-0.409 0.255-0.717 0.681-0.824 0.51-0.128 1.242 0.060 1.533 0.585 0.217 0.392 0.181 0.89 0.149 1.329-0.023 0.319-0.049 0.68 0.060 0.805 0.111 0.128 0.278 0.203 0.454 0.283 0.291 0.131 0.653 0.296 0.792 0.75 0.065 0.213 0.075 0.57 0.087 1.020 0.023 0.827 0.058 2.077 0.523 2.371 0.085 0.054 0.133 0.061 0.149 0.056 0.068-0.020 0.166-0.228 0.224-0.353 0.111-0.239 0.238-0.51 0.508-0.574 0.164-0.039 0.337 0.012 0.514 0.15 0.801 0.625 1.019 1.744 0.556 2.854-0.384 0.919-0.251 4.104 0.226 5.41 0.549 1.5 0.529 2.608-0.057 3.203-0.136 0.138-0.151 0.263-0.171 0.531-0.033 0.433-0.078 1.025-0.879 1.931-0.1 0.113-0.124 0.357-0.149 0.615-0.069 0.698-0.172 1.746-2.038 1.767-0.324 0.276-1.611 1.307-2.934 1.47-0.407 0.050-0.75 0.068-1.053 0.084-0.765 0.040-1.318 0.068-2.259 0.592-0.324 0.18-0.733 0.271-1.231 0.271zM3.276 14.449c-0.034 0-0.081 0.010-0.146 0.042-0.237 0.117-0.231 0.146-0.169 0.425 0.050 0.228 0.12 0.541 0.001 0.949-0.153 0.528-0.363 0.712-0.565 0.889-0.14 0.122-0.271 0.238-0.409 0.508-0.329 0.648-0.261 1.172-0.046 1.809 0.144 0.426 0.023 0.731-0.095 1.026-0.116 0.293-0.248 0.625-0.192 1.208 0.053 0.548 0.309 0.894 0.556 1.227 0.273 0.369 0.556 0.751 0.521 1.342-0.031 0.516 0.131 0.806 0.303 1.112 0.13 0.233 0.265 0.473 0.294 0.792 0.028 0.306 0.374 0.544 0.812 0.845 0.261 0.179 0.557 0.383 0.84 0.64 0.391 0.356 0.517 0.886 0.628 1.354 0.158 0.664 0.259 0.934 0.632 0.934 1.072 0 1.601 0.055 2.915 0.64 3.407 1.517 4.842 1.436 5.447 1.099 1.046-0.582 1.681-0.615 2.484-0.657 0.294-0.015 0.628-0.032 1.017-0.080 1.338-0.165 2.714-1.395 2.728-1.407 0.047-0.043 0.109-0.066 0.173-0.066h0.002c1.494 0.012 1.554-0.601 1.624-1.311 0.033-0.341 0.065-0.662 0.273-0.897 0.69-0.78 0.726-1.255 0.755-1.638 0.021-0.28 0.043-0.569 0.314-0.844 0.428-0.435 0.407-1.412-0.057-2.682-0.528-1.444-0.652-4.734-0.218-5.772 0.374-0.896 0.217-1.785-0.4-2.267-0.024-0.020-0.050-0.036-0.079-0.049-0.047 0.045-0.118 0.196-0.161 0.289-0.118 0.254-0.253 0.542-0.545 0.627-0.176 0.051-0.368 0.012-0.57-0.116-0.693-0.438-0.729-1.738-0.758-2.781-0.011-0.381-0.020-0.741-0.066-0.89-0.069-0.226-0.232-0.309-0.515-0.437-0.208-0.094-0.445-0.201-0.629-0.413-0.246-0.282-0.214-0.713-0.181-1.169 0.028-0.388 0.057-0.789-0.088-1.051-0.161-0.291-0.638-0.418-0.957-0.338-0.295 0.074-0.295 0.271-0.295 0.335 0 0.253 0.075 0.553 0.141 0.817 0.11 0.44 0.205 0.821-0.014 1.057-0.12 0.13-0.303 0.177-0.541 0.141-0.918-0.139-0.845-0.91-0.7-2.447 0.020-0.215 0.043-0.451 0.065-0.707 0.127-1.461-0.487-1.913-1.266-2.485-0.228-0.167-0.463-0.34-0.686-0.546-0.469-0.433-0.789-0.362-1.192-0.271-0.301 0.067-0.643 0.143-1.014-0.041-0.439-0.218-1.274-0.316-1.768-0.109-0.176 0.074-0.287 0.179-0.328 0.311-0.044 0.141-0.047 0.251-0.009 0.288 0.068 0.065 0.357 0.1 0.879-0.072 0.401-0.131 0.841-0.052 1.207 0.219 0.426 0.315 0.668 0.832 0.647 1.384s-0.32 0.843-0.559 1.077c-0.251 0.245-0.369 0.377-0.305 0.688 0.218 1.079-0.504 1.398-1.702 1.925l-0.006 0.003c-1.16 0.511-2.282 1.591-2.668 2.569-0.285 0.721-0.472 0.851-0.904 1.098-0.218 0.125-0.518 0.297-0.966 0.654-0.671 0.535-0.829 0.827-1.012 1.166-0.149 0.276-0.319 0.59-0.756 1.048-0.423 0.442-0.612 1.19-0.764 1.791-0.089 0.352-0.166 0.656-0.278 0.882-0.219 0.444-0.533 0.442-0.7 0.4-0.272-0.067-0.403-0.224-0.464-0.343-0.218-0.422 0.048-1.063 0.355-1.806 0.057-0.139 0.116-0.28 0.172-0.423 0.281-0.712 0.203-1.316 0.042-1.461-0.011-0.010-0.024-0.018-0.038-0.024s-0.029-0.008-0.044-0.007z"></path>
<path fill="#407bff" style="fill: var(--color3, #407bff)" d="M6.676 12.268c-0.070-0-0.14-0.009-0.208-0.025-0.256-0.060-0.457-0.234-0.564-0.49-0.202-0.478-0.077-1.177 0.326-1.824 0.328-0.526 0.904-1.004 1.413-1.426 0.374-0.311 0.728-0.603 0.818-0.792 0.078-0.163 0.106-0.347 0.133-0.525 0.050-0.324 0.106-0.692 0.501-0.863 0.27-0.117 0.599-0.065 0.878 0.139 0.141 0.102 0.256 0.235 0.337 0.388 0.086-0.177 0.159-0.414 0.136-0.691-0.012-0.142-0.050-0.308-0.087-0.469-0.090-0.394-0.175-0.767 0.069-0.959 0.178-0.14 0.392-0.168 0.601-0.080 0.392 0.166 0.737 0.75 0.786 1.33 0.065 0.771-0.613 2.471-2.478 2.907-1.657 0.387-1.818 1.386-1.766 1.947 0.047 0.512-0.109 1.002-0.397 1.248-0.137 0.12-0.314 0.185-0.497 0.184zM9.398 6.64c-0.051-0-0.102 0.010-0.149 0.030-0.192 0.083-0.227 0.253-0.276 0.573-0.030 0.195-0.064 0.416-0.166 0.629-0.126 0.264-0.476 0.554-0.918 0.921-0.487 0.404-1.038 0.861-1.333 1.334-0.329 0.529-0.449 1.124-0.298 1.481 0.061 0.145 0.162 0.235 0.299 0.267 0.145 0.034 0.264 0.009 0.365-0.077 0.195-0.166 0.302-0.539 0.266-0.928-0.051-0.55 0.049-1.879 2.059-2.349 1.64-0.383 2.24-1.846 2.184-2.508-0.040-0.476-0.325-0.916-0.555-1.014-0.079-0.034-0.142-0.026-0.209 0.027-0.053 0.062 0.024 0.4 0.066 0.581 0.040 0.174 0.081 0.353 0.095 0.521 0.066 0.785-0.452 1.305-0.474 1.326-0.028 0.028-0.064 0.046-0.104 0.053s-0.080 0.001-0.116-0.016c-0.036-0.017-0.065-0.045-0.085-0.079s-0.027-0.074-0.022-0.113c0.021-0.179-0.092-0.393-0.283-0.532-0.113-0.083-0.235-0.126-0.346-0.126v-0z"></path>
<path fill="#407bff" style="fill: var(--color3, #407bff)" d="M23.269 12.491c-0.043 0-0.086-0.003-0.128-0.010-0.619-0.099-0.56-0.894-0.521-1.42 0.008-0.112 0.016-0.218 0.016-0.297 0-0.101-0.133-0.25-0.261-0.393-0.26-0.29-0.616-0.688-0.416-1.258 0.079-0.224 0.302-0.358 0.612-0.366 0.49-0.012 1.149 0.288 1.36 0.798 0.136 0.327 0.185 0.617 0.229 0.872 0.045 0.263 0.084 0.49 0.206 0.691 0.137 0.225 0.105 0.514-0.087 0.794-0.212 0.309-0.613 0.589-1.012 0.589zM22.605 9.124h-0.022c-0.067 0.002-0.226 0.016-0.26 0.112-0.118 0.336 0.058 0.568 0.341 0.884 0.184 0.205 0.357 0.399 0.357 0.643 0 0.093-0.008 0.205-0.017 0.324-0.029 0.389-0.073 0.976 0.2 1.020 0.235 0.037 0.576-0.15 0.76-0.418 0.050-0.072 0.157-0.254 0.076-0.387-0.16-0.263-0.206-0.535-0.256-0.823-0.042-0.248-0.086-0.504-0.206-0.792-0.139-0.336-0.618-0.563-0.972-0.563z"></path>
<path fill="#407bff" style="fill: var(--color3, #407bff)" d="M19.253 6.363c-0.011 0-0.022 0-0.033-0.001-0.631-0.025-0.701-0.621-0.744-0.976-0.014-0.116-0.036-0.311-0.075-0.348-0.265-0.219-0.421-0.528-0.426-0.847-0.005-0.28 0.106-0.54 0.302-0.713 0.158-0.138 0.37-0.186 0.615-0.136 0.497 0.1 1.028 0.575 1.21 0.957 0.186 0.389 0.15 1.187-0.177 1.673-0.174 0.257-0.406 0.392-0.674 0.392zM18.713 3.7c-0.074 0-0.133 0.020-0.179 0.060-0.114 0.1-0.177 0.255-0.174 0.425 0.003 0.212 0.106 0.412 0.289 0.564 0.153 0.126 0.18 0.353 0.209 0.594 0.051 0.429 0.105 0.632 0.378 0.643 0.145 0.006 0.266-0.067 0.371-0.224 0.243-0.361 0.285-1.018 0.149-1.302-0.14-0.292-0.57-0.674-0.939-0.748-0.034-0.007-0.069-0.011-0.104-0.012z"></path>
<path fill="#407bff" style="fill: var(--color3, #407bff)" d="M12.487 1.959c-0.34 0-0.556-0.147-0.721-0.26-0.156-0.107-0.205-0.13-0.28-0.104-0.288 0.099-0.963 0.332-1.246-0.164-0.057-0.098-0.086-0.208-0.086-0.321s0.031-0.223 0.089-0.32c0.094-0.159 0.347-0.426 0.98-0.426 0.243 0 0.502-0.093 0.754-0.182 0.496-0.177 1.114-0.397 1.545 0.27 0.174 0.27 0.203 0.585 0.079 0.867-0.139 0.315-0.455 0.54-0.869 0.617-0.081 0.016-0.164 0.024-0.247 0.024zM11.538 1.207c0.182 0 0.326 0.099 0.448 0.182 0.178 0.122 0.346 0.237 0.677 0.175 0.291-0.054 0.499-0.195 0.588-0.396 0.073-0.164 0.054-0.352-0.051-0.514-0.253-0.393-0.549-0.31-1.090-0.117-0.283 0.101-0.575 0.205-0.885 0.205-0.322 0-0.559 0.087-0.649 0.239-0.024 0.040-0.037 0.086-0.037 0.132s0.013 0.092 0.037 0.132c0.087 0.152 0.329 0.15 0.785-0.007 0.057-0.020 0.117-0.031 0.177-0.031z"></path>
<path fill="#407bff" style="fill: var(--color3, #407bff)" d="M8.724 5.032c-0.452 0-0.82-0.383-0.82-0.855s0.368-0.855 0.82-0.855c0.452 0 0.819 0.383 0.819 0.855s-0.368 0.855-0.819 0.855zM8.724 3.7c-0.24 0-0.436 0.214-0.436 0.477s0.195 0.477 0.436 0.477c0.24 0 0.436-0.214 0.436-0.477s-0.195-0.477-0.436-0.477z"></path>
<path fill="#407bff" style="fill: var(--color3, #407bff)" d="M5.632 8.425c-0.047-0-0.093-0.007-0.138-0.019-0.16-0.044-0.27-0.163-0.301-0.326-0.071-0.37 0.279-0.947 0.541-1.141 0.158-0.117 0.279-0.098 0.354-0.061 0.307 0.152 0.314 0.62 0.163 1.005-0.136 0.345-0.365 0.542-0.619 0.542zM5.943 7.256c-0.141 0.119-0.387 0.506-0.375 0.73 0.003 0.048 0.012 0.050 0.030 0.055 0.111 0.031 0.231-0.132 0.295-0.296 0.086-0.218 0.079-0.408 0.050-0.489z"></path>
<path fill="#407bff" style="fill: var(--color3, #407bff)" d="M3.796 13.126c-0.261 0-0.515-0.12-0.658-0.32-0.324-0.452-0.243-1.009 0.196-1.355 0.284-0.223 0.479-0.822 0.531-1.034 0.007-0.028 0.020-0.055 0.039-0.077s0.043-0.040 0.070-0.052c0.027-0.012 0.056-0.017 0.086-0.016s0.058 0.009 0.084 0.023c0.386 0.209 1.030 0.864 0.708 1.842-0.253 0.769-0.693 0.944-0.933 0.98-0.041 0.006-0.082 0.009-0.123 0.009zM4.158 10.772c-0.099 0.29-0.291 0.742-0.584 0.973-0.343 0.27-0.28 0.622-0.122 0.842 0.067 0.094 0.225 0.183 0.41 0.155 0.263-0.039 0.484-0.296 0.625-0.722 0.209-0.633-0.102-1.045-0.328-1.248v-0z"></path>
<path fill="#407bff" style="fill: var(--color3, #407bff)" d="M25.652 20.624c-0.121 0-0.247-0.033-0.374-0.1-0.905-0.478-0.745-1.939-0.546-2.997 0.132-0.7-0.118-1.093-0.12-1.097-0.021-0.031-0.032-0.068-0.032-0.106s0.012-0.075 0.034-0.106c0.022-0.031 0.052-0.055 0.088-0.069s0.075-0.017 0.112-0.009c1.27 0.278 1.369 1.283 1.435 1.948 0.024 0.243 0.047 0.472 0.116 0.572 0.283 0.405 0.179 1.306-0.199 1.721-0.146 0.16-0.323 0.241-0.513 0.241zM25.096 16.631c0.058 0.232 0.091 0.558 0.014 0.966-0.274 1.455-0.156 2.328 0.35 2.594 0.17 0.090 0.3 0.072 0.419-0.060 0.274-0.301 0.335-1.015 0.169-1.254-0.126-0.18-0.152-0.444-0.182-0.749-0.055-0.564-0.117-1.192-0.77-1.496z"></path>
<path fill="#407bff" style="fill: var(--color3, #407bff)" d="M25.832 23.607c-0.46 0-0.834-0.428-0.834-0.954s0.374-0.954 0.834-0.954 0.835 0.428 0.835 0.954c0 0.526-0.375 0.954-0.835 0.954zM25.832 22.077c-0.248 0-0.45 0.258-0.45 0.576s0.202 0.576 0.45 0.576c0.249 0 0.451-0.258 0.451-0.576s-0.202-0.576-0.451-0.576z"></path>
<path fill="#407bff" style="fill: var(--color3, #407bff)" d="M2.013 27.030c-0.017 0-0.034-0.001-0.051-0.004-0.303-0.044-0.519-0.471-0.769-0.965-0.117-0.233-0.314-0.622-0.409-0.669-0.443-0.197-0.772-0.639-0.785-1.051-0.009-0.333 0.182-0.616 0.536-0.797 0.264-0.135 0.537-0.139 0.768-0.011 0.333 0.184 0.547 0.62 0.588 1.196 0.023 0.328 0.17 0.641 0.312 0.944 0.203 0.434 0.414 0.882 0.085 1.229-0.096 0.102-0.197 0.129-0.276 0.129zM0.944 23.818c-0.072 0-0.149 0.021-0.23 0.062-0.223 0.114-0.334 0.266-0.329 0.452 0.007 0.265 0.253 0.58 0.559 0.717 0.206 0.092 0.36 0.381 0.595 0.845 0.123 0.243 0.346 0.686 0.468 0.754l0.003-0.003c0.146-0.153 0.036-0.409-0.153-0.812-0.149-0.318-0.319-0.679-0.347-1.076-0.031-0.44-0.178-0.773-0.393-0.892-0.053-0.030-0.113-0.045-0.174-0.045z"></path>
<path fill="#407bff" style="fill: var(--color3, #407bff)" d="M15.181 21.667c0.153 0.752-0.336 1.542-1.045 1.84-0.992 0.445-2.237-0.079-2.537-1.121-0.069-0.238-0.084-0.487-0.036-0.719 0.005-0.025 0.019-0.047 0.039-0.063s0.045-0.025 0.070-0.025 0.051 0.008 0.071 0.024c0.020 0.016 0.034 0.038 0.040 0.062 0.163 0.765 0.808 1.337 1.579 1.329 0.765-0.006 1.392-0.57 1.557-1.326 0.027-0.14 0.235-0.138 0.262 0l0 0z"></path>
<path fill="#fff" style="fill: var(--color4, #fff)" opacity="0.5" d="M6.593 22.817c0.692-0.13 1.115-0.942 0.946-1.814s-0.867-1.472-1.559-1.342c-0.692 0.13-1.115 0.942-0.946 1.814s0.867 1.472 1.559 1.342z"></path>
<path fill="#fff" style="fill: var(--color4, #fff)" opacity="0.5" d="M6.63 18.799c0.715 0.219 1.433-2.086 2.7-2.608s2.102-2.163 2.491-3.225c0.389-1.062 1.984-1.755 1.647-2.497s-1.796-0.145-2.656 0.985-0.476 2.31-1.773 2.809c-1.297 0.499-3.889 4.082-2.409 4.536z"></path>
<path fill="#407bff" style="fill: var(--color3, #407bff)" opacity="0.2" d="M23.504 24.485c-0.49 0.478 0.162 0.974-0.995 2.232-0.482 0.523 0.356 2.091-1.966 2.072 0 0-1.348 1.169-2.696 1.329s-1.91-0.053-3.202 0.638c-1.292 0.691-4.157-0.478-5.337-0.983s-1.629-0.558-2.639-0.558c-1.011 0-0.618-1.488-1.348-2.126s-1.573-0.903-1.629-1.487c-0.056-0.584-0.618-0.85-0.562-1.754s-0.899-1.169-1.011-2.285c-0.112-1.116 0.505-1.328 0.28-1.966s-0.28-1.169 0.056-1.806c0.040-0.077 0.087-0.152 0.139-0.222 0.014 0.362 0.035 0.723 0.16 0.947 0.13 0.232 0.301 0.446 0.381 0.697 0.204 0.645-0.252 1.301-0.318 1.971-0.123 1.24 1.040 2.2 1.836 3.192 0.708 0.883 1.216 1.969 2.216 2.547 1.113 0.644 2.556 0.478 3.775 0.040s2.331-1.123 3.573-1.5c1.437-0.438 2.978-0.445 4.485-0.37 1.086 0.054 2.325 0.096 3.080-0.643 0.434-0.425 0.608-1.027 0.727-1.607 0.228-1.114 0.314-2.252 0.255-3.388 0.132 0.245 0.263 0.491 0.394 0.737 0.074 0.642 0.192 1.234 0.346 1.638 0.465 1.222 0.489 2.178-0 2.657z"></path>
<path fill="#407bff" style="fill: var(--color3, #407bff)" d="M16.942 16.62c0.821-0.082 1.578 0.802 1.692 1.976s-0.459 2.192-1.279 2.274c-0.82 0.082-1.578-0.802-1.692-1.976s0.459-2.191 1.279-2.274z"></path>
<path fill="#fff" style="fill: var(--color4, #fff)" d="M17 17.112c0.261 0.108 0.374 0.507 0.252 0.892s-0.434 0.61-0.695 0.503c-0.261-0.108-0.374-0.507-0.251-0.892s0.434-0.61 0.695-0.503z"></path>
<path fill="#8baeff" style="fill: var(--color5, #8baeff)" d="M17.879 19.634c0.124 0.090 0.139 0.311 0.034 0.492s-0.291 0.255-0.415 0.165c-0.123-0.090-0.139-0.311-0.034-0.492s0.291-0.255 0.415-0.165z"></path>
<path fill="#407bff" style="fill: var(--color3, #407bff)" d="M9.905 16.62c-0.821-0.082-1.578 0.802-1.692 1.976s0.459 2.192 1.279 2.274c0.821 0.082 1.578-0.802 1.692-1.976s-0.459-2.191-1.279-2.274z"></path>
<path fill="#fff" style="fill: var(--color4, #fff)" d="M9.847 17.112c-0.261 0.108-0.374 0.507-0.251 0.892s0.434 0.61 0.695 0.503 0.374-0.507 0.252-0.892c-0.123-0.385-0.434-0.61-0.695-0.503z"></path>
<path fill="#8baeff" style="fill: var(--color5, #8baeff)" d="M8.968 19.634c-0.124 0.090-0.139 0.311-0.034 0.492s0.291 0.255 0.415 0.165 0.139-0.311 0.034-0.492c-0.105-0.181-0.291-0.255-0.415-0.165z"></path>
</symbol>
<symbol id="icon-eye-slash" viewBox="0 0 32 32">
<path stroke-linejoin="round" stroke-linecap="round" stroke-miterlimit="4" stroke-width="1.3333" d="M5.307 10.964c-1.247 1.472-2.176 3.187-2.728 5.036 1.723 5.784 7.080 10 13.421 10 1.324 0 2.604-0.184 3.817-0.527M8.304 8.304c2.284-1.507 4.96-2.308 7.696-2.304 6.341 0 11.697 4.216 13.42 9.997-0.944 3.159-2.971 5.885-5.724 7.699M8.304 8.304l-4.304-4.304M8.304 8.304l4.867 4.867M23.696 23.696l4.304 4.304M23.696 23.696l-4.867-4.867c0.371-0.371 0.666-0.812 0.867-1.298s0.304-1.005 0.304-1.531-0.103-1.045-0.304-1.531c-0.201-0.485-0.496-0.926-0.867-1.298s-0.813-0.666-1.298-0.867c-0.485-0.201-1.005-0.304-1.531-0.304s-1.046 0.103-1.531 0.305c-0.485 0.201-0.926 0.496-1.298 0.867M18.828 18.828l-5.655-5.655"></path>
</symbol>
<symbol id="icon-eye" viewBox="0 0 32 32">
<path stroke-linejoin="round" stroke-linecap="round" stroke-miterlimit="4" stroke-width="1.3333" d="M2.715 16.429c-0.092-0.277-0.092-0.575 0-0.852 1.849-5.564 7.099-9.577 13.285-9.577 6.184 0 11.431 4.009 13.284 9.571 0.093 0.276 0.093 0.575 0 0.852-1.848 5.564-7.097 9.577-13.284 9.577-6.184 0-11.432-4.009-13.285-9.571z"></path>
<path stroke-linejoin="round" stroke-linecap="round" stroke-miterlimit="4" stroke-width="1.3333" d="M20 16c0 1.061-0.421 2.078-1.172 2.828s-1.768 1.172-2.828 1.172c-1.061 0-2.078-0.421-2.828-1.172s-1.172-1.768-1.172-2.828c0-1.061 0.421-2.078 1.172-2.828s1.768-1.172 2.828-1.172c1.061 0 2.078 0.421 2.828 1.172s1.172 1.768 1.172 2.828z"></path>
</symbol>
<symbol id="icon-6-tooth" viewBox="0 0 32 32">
<path stroke-linejoin="round" stroke-linecap="round" stroke-miterlimit="4" stroke-width="1.3333" d="M12.792 5.253c0.12-0.723 0.747-1.253 1.48-1.253h3.457c0.733 0 1.36 0.531 1.48 1.253l0.284 1.708c0.084 0.499 0.417 0.915 0.86 1.16 0.099 0.053 0.196 0.111 0.293 0.169 0.432 0.261 0.96 0.343 1.433 0.165l1.623-0.608c0.333-0.125 0.699-0.128 1.033-0.008s0.616 0.354 0.793 0.662l1.728 2.996c0.177 0.308 0.24 0.668 0.177 1.018s-0.249 0.665-0.523 0.89l-1.337 1.103c-0.391 0.32-0.584 0.817-0.575 1.323 0.002 0.113 0.002 0.227 0 0.34-0.009 0.504 0.184 1 0.573 1.32l1.34 1.104c0.565 0.467 0.712 1.272 0.347 1.907l-1.731 2.996c-0.177 0.307-0.458 0.542-0.793 0.662s-0.7 0.117-1.033-0.007l-1.623-0.608c-0.473-0.177-1-0.096-1.435 0.165-0.097 0.059-0.194 0.116-0.293 0.171-0.441 0.244-0.775 0.66-0.859 1.159l-0.284 1.707c-0.12 0.724-0.747 1.255-1.48 1.255h-3.459c-0.733 0-1.36-0.531-1.48-1.253l-0.284-1.708c-0.083-0.499-0.416-0.915-0.859-1.16-0.099-0.055-0.197-0.111-0.293-0.169-0.433-0.261-0.96-0.343-1.435-0.165l-1.623 0.608c-0.332 0.125-0.698 0.127-1.032 0.008s-0.615-0.354-0.793-0.661l-1.729-2.996c-0.177-0.308-0.24-0.668-0.176-1.018s0.249-0.665 0.523-0.89l1.339-1.103c0.389-0.32 0.583-0.817 0.573-1.323-0.002-0.113-0.002-0.227 0-0.34 0.009-0.504-0.184-1-0.573-1.32l-1.339-1.104c-0.274-0.225-0.459-0.541-0.523-0.89s-0.001-0.709 0.176-1.017l1.729-2.996c0.178-0.308 0.459-0.543 0.793-0.662s0.701-0.117 1.033 0.008l1.621 0.608c0.475 0.177 1.001 0.096 1.435-0.165 0.096-0.059 0.195-0.116 0.293-0.171 0.443-0.244 0.776-0.66 0.859-1.159l0.285-1.708z"></path>
<path stroke-linejoin="round" stroke-linecap="round" stroke-miterlimit="4" stroke-width="1.3333" d="M20 16c0 1.061-0.421 2.078-1.172 2.828s-1.768 1.172-2.828 1.172c-1.061 0-2.078-0.421-2.828-1.172s-1.172-1.768-1.172-2.828c0-1.061 0.421-2.078 1.172-2.828s1.768-1.172 2.828-1.172c1.061 0 2.078 0.421 2.828 1.172s1.172 1.768 1.172 2.828z"></path>
</symbol>
<symbol id="icon-double-up" viewBox="0 0 32 32">
<path d="M16.706 21.707c-0.187 0.187-0.442 0.293-0.707 0.293s-0.519-0.105-0.707-0.293l-10-10c-0.177-0.19-0.273-0.44-0.268-0.699s0.11-0.506 0.293-0.689c0.183-0.183 0.43-0.288 0.689-0.293s0.51 0.092 0.699 0.268l9.293 9.293 9.293-9.293c0.092-0.098 0.202-0.177 0.325-0.232s0.255-0.084 0.389-0.086c0.134-0.002 0.268 0.022 0.392 0.073s0.238 0.125 0.333 0.22 0.17 0.208 0.22 0.333c0.050 0.125 0.075 0.258 0.073 0.392s-0.032 0.267-0.086 0.389-0.133 0.233-0.232 0.325l-10 10z"></path>
</symbol>
<symbol id="icon-arrow-right" viewBox="0 0 32 32">
<path stroke-linejoin="round" stroke-linecap="round" stroke-miterlimit="4" stroke-width="1.3333" d="M21 12v-5c0-0.796-0.316-1.559-0.879-2.121s-1.326-0.879-2.121-0.879h-8c-0.796 0-1.559 0.316-2.121 0.879s-0.879 1.326-0.879 2.121v18c0 0.796 0.316 1.559 0.879 2.121s1.326 0.879 2.121 0.879h8c0.796 0 1.559-0.316 2.121-0.879s0.879-1.326 0.879-2.121v-5M25 20l4-4M29 16l-4-4M29 16h-17"></path>
</symbol>

<symbol id="icon-settings" viewBox="0 0 32 32">
<path stroke-linejoin="round" stroke-linecap="round" stroke-miterlimit="4" stroke-width="1.3333" d="M12.792 5.253c0.12-0.723 0.747-1.253 1.48-1.253h3.457c0.733 0 1.36 0.531 1.48 1.253l0.284 1.708c0.084 0.499 0.417 0.915 0.86 1.16 0.099 0.053 0.196 0.111 0.293 0.169 0.432 0.261 0.96 0.343 1.433 0.165l1.623-0.608c0.333-0.125 0.699-0.128 1.033-0.008s0.616 0.354 0.793 0.662l1.728 2.996c0.177 0.308 0.24 0.668 0.177 1.018s-0.249 0.665-0.523 0.89l-1.337 1.103c-0.391 0.32-0.584 0.817-0.575 1.323 0.002 0.113 0.002 0.227 0 0.34-0.009 0.504 0.184 1 0.573 1.32l1.34 1.104c0.565 0.467 0.712 1.272 0.347 1.907l-1.731 2.996c-0.177 0.307-0.458 0.542-0.793 0.662s-0.7 0.117-1.033-0.007l-1.623-0.608c-0.473-0.177-1-0.096-1.435 0.165-0.097 0.059-0.194 0.116-0.293 0.171-0.441 0.244-0.775 0.66-0.859 1.159l-0.284 1.707c-0.12 0.724-0.747 1.255-1.48 1.255h-3.459c-0.733 0-1.36-0.531-1.48-1.253l-0.284-1.708c-0.083-0.499-0.416-0.915-0.859-1.16-0.099-0.055-0.197-0.111-0.293-0.169-0.433-0.261-0.96-0.343-1.435-0.165l-1.623 0.608c-0.332 0.125-0.698 0.127-1.032 0.008s-0.615-0.354-0.793-0.661l-1.729-2.996c-0.177-0.308-0.24-0.668-0.176-1.018s0.249-0.665 0.523-0.89l1.339-1.103c0.389-0.32 0.583-0.817 0.573-1.323-0.002-0.113-0.002-0.227 0-0.34 0.009-0.504-0.184-1-0.573-1.32l-1.339-1.104c-0.274-0.225-0.459-0.541-0.523-0.89s-0.001-0.709 0.176-1.017l1.729-2.996c0.178-0.308 0.459-0.543 0.793-0.662s0.701-0.117 1.033 0.008l1.621 0.608c0.475 0.177 1.001 0.096 1.435-0.165 0.096-0.059 0.195-0.116 0.293-0.171 0.443-0.244 0.776-0.66 0.859-1.159l0.285-1.708z"></path>
<path stroke-linejoin="round" stroke-linecap="round" stroke-miterlimit="4" stroke-width="1.3333" d="M20 16c0 1.061-0.421 2.078-1.172 2.828s-1.768 1.172-2.828 1.172c-1.061 0-2.078-0.421-2.828-1.172s-1.172-1.768-1.172-2.828c0-1.061 0.421-2.078 1.172-2.828s1.768-1.172 2.828-1.172c1.061 0 2.078 0.421 2.828 1.172s1.172 1.768 1.172 2.828z"></path>
</symbol>
<symbol id="icon-arrow-left" viewBox="0 0 32 32">
<path d="M9.706 10.293c0.187 0.188 0.292 0.442 0.292 0.707s-0.105 0.519-0.292 0.707l-3.293 3.293h21.587c0.265 0 0.52 0.105 0.707 0.293s0.293 0.442 0.293 0.707c0 0.265-0.105 0.519-0.293 0.707s-0.442 0.293-0.707 0.293h-21.587l3.293 3.293c0.098 0.091 0.177 0.202 0.232 0.325s0.084 0.255 0.086 0.389c0.002 0.134-0.022 0.268-0.073 0.392s-0.125 0.238-0.22 0.333-0.208 0.17-0.333 0.22c-0.125 0.050-0.258 0.075-0.392 0.073s-0.267-0.032-0.389-0.086-0.233-0.133-0.325-0.232l-5-5c-0.187-0.188-0.292-0.442-0.292-0.707s0.105-0.519 0.292-0.707l5-5c0.188-0.187 0.442-0.292 0.707-0.292s0.519 0.105 0.707 0.292z"></path>
</symbol>
<symbol id="icon-x-close" viewBox="0 0 32 32">
<path fill="none" stroke="#407bff" style="stroke: var(--color1, #407bff)" stroke-linejoin="round" stroke-linecap="round" stroke-miterlimit="4" stroke-width="3.4286" d="M2.286 29.714l27.429-27.429M2.286 2.286l27.429 27.429"></path>
</symbol>
<symbol id="icon-glass" viewBox="0 0 17 22">
  <path d="M0.521729 0.260864L2.06637 21.6808V21.7391H15.3643L16.9089 0.327541V0.260864H0.521729ZM14.8179 21.139H2.61686L1.45837 5.09493H2.09513L3.14269 19.2346C3.14883 19.309 3.18212 19.3785 3.23607 19.4293C3.29001 19.4802 3.36072 19.5088 3.43437 19.5096H3.45902C3.49735 19.507 3.5348 19.4967 3.5692 19.4793C3.6036 19.4619 3.63428 19.4379 3.65947 19.4084C3.68467 19.379 3.70388 19.3448 3.71601 19.3078C3.72814 19.2708 3.73295 19.2318 3.73015 19.1929L2.68259 5.09493H15.9764L14.8179 21.139ZM16.0175 4.49484H2.6374L2.40734 1.36937C2.40012 1.29312 2.3648 1.22244 2.30844 1.17145C2.25209 1.12047 2.17885 1.09292 2.10335 1.09432C2.02597 1.10175 1.95446 1.13935 1.90388 1.19921C1.8533 1.25907 1.82761 1.33651 1.83221 1.41521L2.06226 4.49901H1.41729L1.15438 0.856788H16.2804L16.0175 4.49484Z" fill="#407BFF" />
  <path d="M5.22952 8.06206C5.42127 8.06206 5.60872 8.00438 5.76815 7.89631C5.92759 7.78824 6.05185 7.63465 6.12523 7.45494C6.19861 7.27523 6.21781 7.07748 6.1804 6.88671C6.14299 6.69593 6.05066 6.52069 5.91507 6.38315C5.77948 6.24561 5.60673 6.15194 5.41866 6.11399C5.2306 6.07604 5.03566 6.09552 4.8585 6.16996C4.68135 6.24439 4.52993 6.37045 4.4234 6.53218C4.31687 6.69391 4.26001 6.88406 4.26001 7.07858C4.26001 7.33941 4.36215 7.58956 4.54397 7.774C4.72579 7.95844 4.97239 8.06206 5.22952 8.06206ZM5.22952 6.69102C5.30508 6.69102 5.37895 6.71375 5.44178 6.75633C5.50461 6.79892 5.55357 6.85945 5.58249 6.93026C5.61141 7.00108 5.61897 7.07901 5.60423 7.15418C5.58949 7.22936 5.5531 7.29842 5.49967 7.35262C5.44624 7.40682 5.37817 7.44373 5.30405 7.45869C5.22994 7.47364 5.15313 7.46597 5.08331 7.43663C5.0135 7.4073 4.95384 7.35763 4.91185 7.29389C4.86987 7.23016 4.84747 7.15523 4.84747 7.07858C4.84747 6.97579 4.88772 6.87721 4.95937 6.80453C5.03102 6.73185 5.12819 6.69102 5.22952 6.69102Z" fill="#407BFF" />
  <path d="M5.22542 11.2584C5.22785 11.4525 5.28688 11.6416 5.39506 11.8017C5.50325 11.9619 5.65574 12.086 5.83333 12.1584C6.01093 12.2308 6.20567 12.2483 6.39303 12.2086C6.58038 12.1689 6.75197 12.0738 6.88616 11.9354C7.02035 11.7969 7.11115 11.6213 7.1471 11.4306C7.18306 11.2399 7.16257 11.0427 7.08821 10.8638C7.01385 10.6849 6.88896 10.5323 6.72926 10.4253C6.56957 10.3183 6.38222 10.2616 6.19082 10.2624C6.06281 10.2629 5.93616 10.2892 5.8182 10.3396C5.70024 10.3901 5.5933 10.4637 5.50354 10.5563C5.41379 10.6489 5.343 10.7586 5.29527 10.8791C5.24753 10.9996 5.22379 11.1285 5.22542 11.2584ZM6.57288 11.2584C6.57288 11.335 6.55047 11.41 6.50849 11.4737C6.46651 11.5374 6.40684 11.5871 6.33703 11.6164C6.26722 11.6458 6.1904 11.6534 6.11629 11.6385C6.04218 11.6235 5.9741 11.5866 5.92067 11.5324C5.86724 11.4782 5.83085 11.4092 5.81611 11.334C5.80137 11.2588 5.80894 11.1809 5.83785 11.1101C5.86677 11.0392 5.91574 10.9787 5.97857 10.9361C6.04139 10.8935 6.11526 10.8708 6.19082 10.8708C6.29215 10.8708 6.38933 10.9116 6.46097 10.9843C6.53262 11.057 6.57288 11.1556 6.57288 11.2584Z" fill="#407BFF" />
  <path d="M12.1148 11.2834C12.3065 11.2834 12.494 11.2257 12.6534 11.1176C12.8128 11.0096 12.9371 10.856 13.0105 10.6763C13.0839 10.4965 13.1031 10.2988 13.0657 10.108C13.0282 9.91724 12.9359 9.742 12.8003 9.60446C12.6647 9.46692 12.492 9.37325 12.3039 9.3353C12.1158 9.29736 11.9209 9.31683 11.7438 9.39127C11.5666 9.46571 11.4152 9.59176 11.3087 9.7535C11.2021 9.91523 11.1453 10.1054 11.1453 10.2999C11.1453 10.5607 11.2474 10.8109 11.4292 10.9953C11.611 11.1798 11.8576 11.2834 12.1148 11.2834ZM12.1148 9.9165C12.1905 9.9165 12.2645 9.93934 12.3275 9.98211C12.3904 10.0249 12.4393 10.0857 12.4681 10.1567C12.4969 10.2278 12.5042 10.3059 12.4892 10.3812C12.4741 10.4565 12.4373 10.5255 12.3834 10.5796C12.3296 10.6336 12.2611 10.6702 12.1868 10.6847C12.1124 10.6991 12.0354 10.6909 11.9657 10.6609C11.896 10.6309 11.8366 10.5806 11.7951 10.5163C11.7536 10.452 11.7319 10.3767 11.7327 10.2999C11.7338 10.1978 11.7745 10.1003 11.8461 10.0285C11.9176 9.95675 12.0142 9.91649 12.1148 9.9165Z" fill="#407BFF" />
  <path d="M8.73782 9.42893C8.92957 9.42893 9.11702 9.37125 9.27645 9.26318C9.43589 9.15511 9.56015 9.00151 9.63353 8.82181C9.70691 8.6421 9.72611 8.44435 9.6887 8.25357C9.65129 8.0628 9.55896 7.88756 9.42337 7.75002C9.28778 7.61247 9.11503 7.51881 8.92696 7.48086C8.7389 7.44291 8.54396 7.46239 8.36681 7.53682C8.18965 7.61126 8.03823 7.73732 7.9317 7.89905C7.82517 8.06078 7.76831 8.25093 7.76831 8.44544C7.76831 8.70628 7.87046 8.95643 8.05227 9.14087C8.23409 9.32531 8.48069 9.42893 8.73782 9.42893ZM8.73782 8.05788C8.81338 8.05788 8.88725 8.08061 8.95008 8.1232C9.01291 8.16579 9.06188 8.22631 9.09079 8.29713C9.11971 8.36795 9.12727 8.44587 9.11253 8.52105C9.09779 8.59623 9.0614 8.66529 9.00797 8.71949C8.95454 8.77369 8.88647 8.8106 8.81236 8.82555C8.73825 8.84051 8.66143 8.83283 8.59162 8.8035C8.5218 8.77417 8.46214 8.72449 8.42016 8.66076C8.37818 8.59703 8.35577 8.52209 8.35577 8.44544C8.35298 8.39282 8.36079 8.34018 8.37874 8.29072C8.39668 8.24127 8.42438 8.19605 8.46014 8.15783C8.4959 8.1196 8.53897 8.08918 8.58671 8.06841C8.63446 8.04764 8.68587 8.03697 8.73782 8.03705V8.05788Z" fill="#407BFF" />
  <path d="M6.88916 15.0048C6.8932 15.1645 6.94359 15.3196 7.03404 15.4504C7.12448 15.5813 7.25096 15.6822 7.39764 15.7405C7.54433 15.7988 7.70472 15.812 7.85873 15.7783C8.01275 15.7447 8.15356 15.6657 8.26355 15.5512C8.37354 15.4368 8.44782 15.292 8.4771 15.135C8.50638 14.9779 8.48936 14.8156 8.42817 14.6683C8.36698 14.5211 8.26434 14.3954 8.13309 14.3069C8.00183 14.2185 7.84779 14.1714 7.69024 14.1713C7.47591 14.1767 7.27217 14.267 7.1225 14.4227C6.97283 14.5784 6.88909 14.7873 6.88916 15.0048ZM7.69024 14.7881C7.73249 14.7881 7.77379 14.8008 7.80892 14.8246C7.84405 14.8484 7.87143 14.8822 7.8876 14.9218C7.90377 14.9614 7.908 15.005 7.89976 15.047C7.89151 15.0891 7.87117 15.1277 7.84129 15.158C7.81142 15.1883 7.77335 15.2089 7.73191 15.2173C7.69048 15.2257 7.64752 15.2214 7.60849 15.205C7.56946 15.1886 7.53609 15.1608 7.51262 15.1252C7.48915 15.0895 7.47662 15.0476 7.47662 15.0048C7.47662 14.9473 7.49912 14.8922 7.53919 14.8515C7.57925 14.8109 7.63358 14.7881 7.69024 14.7881Z" fill="#407BFF" />
  <path d="M10.7633 14.1005C10.9278 14.1062 11.0902 14.0618 11.2295 13.9729C11.3688 13.884 11.4785 13.7547 11.5445 13.6017C11.6105 13.4488 11.6297 13.2793 11.5996 13.1152C11.5695 12.951 11.4916 12.7998 11.3758 12.6812C11.26 12.5625 11.1118 12.4819 10.9503 12.4497C10.7888 12.4175 10.6216 12.4352 10.4701 12.5006C10.3187 12.566 10.1901 12.6759 10.101 12.8163C10.0119 12.9567 9.96644 13.1209 9.97046 13.2878C9.97557 13.5003 10.0605 13.7027 10.2079 13.8538C10.3553 14.0048 10.5539 14.0931 10.7633 14.1005ZM10.7633 13.0711C10.82 13.0711 10.8743 13.094 10.9144 13.1346C10.9544 13.1752 10.9769 13.2304 10.9769 13.2878C10.9769 13.3453 10.9544 13.4004 10.9144 13.4411C10.8743 13.4817 10.82 13.5045 10.7633 13.5045C10.7063 13.5045 10.6515 13.4818 10.6108 13.4413C10.5701 13.4008 10.5467 13.3457 10.5456 13.2878C10.5456 13.259 10.5512 13.2305 10.5622 13.2039C10.5732 13.1774 10.5893 13.1533 10.6096 13.1331C10.6299 13.1129 10.6539 13.0971 10.6803 13.0864C10.7067 13.0758 10.7349 13.0706 10.7633 13.0711Z" fill="#407BFF" />
  <path d="M12.4557 7.37444C12.6182 7.37444 12.777 7.32556 12.9121 7.23398C13.0472 7.14239 13.1525 7.01223 13.2147 6.85993C13.2769 6.70764 13.2932 6.54006 13.2615 6.37838C13.2298 6.2167 13.1515 6.0682 13.0366 5.95163C12.9217 5.83507 12.7753 5.75569 12.6159 5.72353C12.4566 5.69138 12.2914 5.70788 12.1412 5.77096C11.9911 5.83405 11.8628 5.94087 11.7725 6.07793C11.6822 6.215 11.634 6.37614 11.634 6.54098C11.634 6.76203 11.7206 6.97402 11.8747 7.13032C12.0288 7.28663 12.2377 7.37444 12.4557 7.37444ZM12.4557 6.34512C12.4874 6.3359 12.5209 6.3343 12.5534 6.34044C12.5859 6.34658 12.6166 6.36028 12.643 6.38048C12.6694 6.40068 12.6908 6.42682 12.7055 6.45684C12.7203 6.48686 12.7279 6.51994 12.7279 6.55348C12.7279 6.58702 12.7203 6.6201 12.7055 6.65012C12.6908 6.68014 12.6694 6.70628 12.643 6.72648C12.6166 6.74668 12.5859 6.76039 12.5534 6.76652C12.5209 6.77266 12.4874 6.77106 12.4557 6.76185C12.4239 6.77106 12.3904 6.77266 12.3579 6.76652C12.3254 6.76039 12.2947 6.74668 12.2683 6.72648C12.2419 6.70628 12.2205 6.68014 12.2058 6.65012C12.191 6.6201 12.1834 6.58702 12.1834 6.55348C12.1834 6.51994 12.191 6.48686 12.2058 6.45684C12.2205 6.42682 12.2419 6.40068 12.2683 6.38048C12.2947 6.36028 12.3254 6.34658 12.3579 6.34044C12.3904 6.3343 12.4239 6.3359 12.4557 6.34512Z" fill="#407BFF" />
  <path d="M4.42442 20.093C4.38757 20.1103 4.35461 20.135 4.32759 20.1657C4.30056 20.1964 4.28006 20.2324 4.26734 20.2715C4.25462 20.3106 4.24997 20.3519 4.25367 20.3929C4.25738 20.4339 4.26935 20.4737 4.28886 20.5098C4.31411 20.5584 4.35189 20.5992 4.39818 20.6279C4.44448 20.6565 4.49756 20.6718 4.55177 20.6723C4.59728 20.6736 4.64241 20.6636 4.68323 20.6431C5.93842 19.9908 7.32762 19.6481 8.73792 19.643C10.2304 19.665 11.7021 20.0013 13.0596 20.6306C13.1134 20.6591 13.1744 20.6701 13.2345 20.6622C13.2946 20.6543 13.3508 20.6279 13.3956 20.5866C13.4404 20.5452 13.4716 20.4909 13.485 20.4309C13.4984 20.371 13.4933 20.3083 13.4705 20.2514C13.4415 20.1775 13.3856 20.1178 13.3143 20.0847C11.8771 19.4178 10.3183 19.0629 8.73792 19.0429C7.23872 19.0442 5.76093 19.404 4.42442 20.093Z" fill="#407BFF" />
</symbol>
<symbol id="icon-plus-small" viewBox="0 0 14 14" fill="none" xmlns="http://www.w3.org/2000/svg">
  <path d="M7 1V13M13 7H1" stroke="#407BFF" stroke-width="2" stroke-linecap="round" stroke-linejoin="round" />
</symbol>
<symbol id="icon-edit" viewBox="0 0 14 14" fill="none" xmlns="http://www.w3.org/2000/svg">
<path d="M10.2413 1.99133L11.366 0.865997C11.6005 0.631546 11.9184 0.499832 12.25 0.499832C12.5816 0.499832 12.8995 0.631546 13.134 0.865997C13.3685 1.10045 13.5002 1.41843 13.5002 1.75C13.5002 2.08156 13.3685 2.39955 13.134 2.634L6.05467 9.71333C5.70222 10.0656 5.26758 10.3245 4.79 10.4667L3 11L3.53333 9.21C3.67552 8.73242 3.93442 8.29778 4.28667 7.94533L10.2413 1.99133ZM10.2413 1.99133L12 3.75M11 8.33333V11.5C11 11.8978 10.842 12.2794 10.5607 12.5607C10.2794 12.842 9.89782 13 9.5 13H2.5C2.10218 13 1.72064 12.842 1.43934 12.5607C1.15804 12.2794 1 11.8978 1 11.5V4.5C1 4.10217 1.15804 3.72064 1.43934 3.43934C1.72064 3.15803 2.10218 3 2.5 3H5.66667" stroke="#9EBBFF" stroke-linecap="round" stroke-linejoin="round" />
</symbol>
<symbol id="icon-delete" viewBox="0 0 12 14" fill="none" xmlns="http://www.w3.org/2000/svg">
  <path d="M7.82667 5L7.596 11M4.404 11L4.17333 5M10.8187 2.86C11.0467 2.89466 11.2733 2.93133 11.5 2.97066M10.8187 2.86L10.1067 12.1153C10.0776 12.4921 9.90738 12.8441 9.63001 13.1008C9.35265 13.3575 8.9886 13.5001 8.61067 13.5H3.38933C3.0114 13.5001 2.64735 13.3575 2.36999 13.1008C2.09262 12.8441 1.92239 12.4921 1.89333 12.1153L1.18133 2.86M10.8187 2.86C10.0492 2.74367 9.27584 2.65539 8.5 2.59533M1.18133 2.86C0.953333 2.894 0.726667 2.93066 0.5 2.97M1.18133 2.86C1.95076 2.74368 2.72416 2.6554 3.5 2.59533M8.5 2.59533V1.98466C8.5 1.198 7.89333 0.541997 7.10667 0.51733C6.36908 0.493755 5.63092 0.493755 4.89333 0.51733C4.10667 0.541997 3.5 1.19866 3.5 1.98466V2.59533M8.5 2.59533C6.83581 2.46672 5.16419 2.46672 3.5 2.59533" stroke="#EF5050" stroke-linecap="round" stroke-linejoin="round" />
</symbol>
<symbol id="icon-upload-photo" viewBox="0 0 32 32">
<path fill="none" stroke="#407bff" style="stroke: var(--color2, #407bff)" stroke-linejoin="round" stroke-linecap="round" stroke-miterlimit="4" stroke-width="2" d="M4 22v3c0 0.796 0.316 1.559 0.879 2.121s1.326 0.879 2.121 0.879h18c0.796 0 1.559-0.316 2.121-0.879s0.879-1.326 0.879-2.121v-3M10 10l6-6M16 4l6 6M16 4v18"></path>
</symbol>
</defs>
</svg>