<svg aria-hidden="true" style="position: absolute; width: 0; height: 0; overflow: hidden;" version="1.1" xmlns="http://www.w3.org/2000/svg" xmlns:xlink="http://www.w3.org/1999/xlink">
<defs>
<symbol id="icon-logo" viewBox="0 0 32 32">
<path d="M29.082 0.314h-4.009c-1.237 0-2.24 0.983-2.24 2.195v3.929c0 1.212 1.003 2.195 2.24 2.195h4.009c1.237 0 2.24-0.983 2.24-2.195v-3.929c0-1.212-1.003-2.195-2.24-2.195z"></path>
<path d="M6.73 23.040h-4.318c-1.332 0-2.412 0.983-2.412 2.195v3.929c0 1.213 1.080 2.195 2.412 2.195h4.318c1.332 0 2.412-0.983 2.412-2.195v-3.929c0-1.212-1.080-2.195-2.412-2.195z"></path>
<path d="M6.25 11.582h-4.009c-1.237 0-2.24 0.983-2.24 2.195v3.929c0 1.212 1.003 2.195 2.24 2.195h4.009c1.237 0 2.24-0.983 2.24-2.195v-3.929c0-1.212-1.003-2.195-2.24-2.195z"></path>
<path d="M17.766 22.978h-4.009c-1.237 0-2.24 0.983-2.24 2.195l-0 3.929c0 1.212 1.003 2.195 2.241 2.195h4.009c1.237 0 2.24-0.983 2.24-2.195v-3.929c0-1.212-1.003-2.195-2.24-2.195z"></path>
<path d="M6.25 0.086h-4.009c-1.237 0-2.24 0.983-2.24 2.195v3.929c0 1.212 1.003 2.195 2.24 2.195h4.009c1.237 0 2.24-0.983 2.24-2.195v-3.929c0-1.212-1.003-2.195-2.24-2.195z"></path>
<path d="M18.076 11.697h-4.009c-1.237 0-2.24 0.983-2.24 2.195v3.929c0 1.212 1.003 2.195 2.24 2.195h4.009c1.237 0 2.24-0.983 2.24-2.195v-3.929c0-1.212-1.003-2.195-2.24-2.195z"></path>
<path d="M29.333 22.978h-4.010c-1.237 0-2.24 0.983-2.24 2.195v3.929c0 1.212 1.003 2.195 2.24 2.195h4.009c1.237 0 2.24-0.983 2.24-2.195v-3.929c0-1.212-1.003-2.195-2.24-2.195z"></path>
<path d="M17.591 0.224h-4.009c-1.237 0-2.24 0.983-2.24 2.195v3.929c0 1.212 1.003 2.195 2.24 2.195h4.009c1.237 0 2.24-0.984 2.24-2.196v-3.929c0-1.212-1.003-2.195-2.24-2.195z"></path>
<path d="M29.044 11.926h-4.010c-1.237 0-2.24 0.983-2.24 2.195v3.929c0 1.212 1.003 2.195 2.24 2.195h4.009c1.237 0 2.24-0.983 2.24-2.195v-3.929c0-1.212-1.003-2.195-2.24-2.195z"></path>
</symbol>
 <symbol id="icon-google" viewBox="0 0 32 32">
      <path fill="#4285f4" style="fill: var(--color1, #4285f4)" d="M16 13.091v6.196h8.611c-0.378 1.993-1.513 3.68-3.215 4.815l5.193 4.029c3.025-2.793 4.771-6.895 4.771-11.767 0-1.135-0.102-2.226-0.291-3.273z"/>
      <path fill="#34a853" style="fill: var(--color2, #34a853)" d="M7.033 19.045l-1.171 0.896-4.146 3.229c2.633 5.222 8.029 8.829 14.283 8.829 4.32 0 7.942-1.425 10.589-3.869l-5.193-4.029c-1.425 0.96-3.244 1.542-5.396 1.542-4.16 0-7.694-2.807-8.96-6.589z"/>
      <path fill="#fbbc05" style="fill: var(--color3, #fbbc05)" d="M1.716 8.829c-1.091 2.153-1.716 4.582-1.716 7.171s0.625 5.018 1.716 7.171c0 0.014 5.324-4.131 5.324-4.131-0.32-0.96-0.509-1.978-0.509-3.040s0.189-2.080 0.509-3.040z"/>
      <path fill="#ea4335" style="fill: var(--color4, #ea4335)" d="M16 6.371c2.356 0 4.451 0.815 6.124 2.385l4.582-4.582c-2.778-2.589-6.385-4.175-10.705-4.175-6.255 0-11.651 3.593-14.284 8.829l5.324 4.131c1.265-3.782 4.8-6.589 8.96-6.589z"/>
    </symbol>
</defs>
</svg>
